{
    "asset" : {
        "generator" : "Khronos glTF Blender I/O v1.6.16",
        "version" : "2.0"
    },
    "scene" : 0,
    "scenes" : [
        {
            "name" : "Scene",
            "nodes" : [
                0,
                1,
                2,
                3,
                4,
                5,
                6,
                7,
                8,
                9,
                10
            ]
        }
    ],
    "nodes" : [
        {
            "mesh" : 0,
            "name" : "Pyramid"
        },
        {
            "mesh" : 1,
            "name" : "Stairs"
        },
        {
            "mesh" : 2,
            "name" : "Stair SIde"
        },
        {
            "mesh" : 3,
            "name" : "StairSide2"
        },
        {
            "mesh" : 4,
            "name" : "Tier1",
            "translation" : [
                -12,
                0,
                -1
            ]
        },
        {
            "mesh" : 5,
            "name" : "Tier1 Corner",
            "translation" : [
                -12,
                0,
                -1
            ]
        },
        {
            "mesh" : 6,
            "name" : "Tier2",
            "scale" : [
                0.8500000238418579,
                1,
                0.8500000238418579
            ],
            "translation" : [
                -10,
                3,
                -1
            ]
        },
        {
            "mesh" : 7,
            "name" : "Tier3 Corner",
            "scale" : [
                0.6499999761581421,
                1,
                0.6499999761581421
            ],
            "translation" : [
                -8,
                6,
                -1
            ]
        },
        {
            "mesh" : 8,
            "name" : "Tier3",
            "scale" : [
                0.6499999761581421,
                1,
                0.6499999761581421
            ],
            "translation" : [
                -8,
                6,
                -1
            ]
        },
        {
            "mesh" : 9,
            "name" : "Tier2Corner",
            "scale" : [
                0.8500000238418579,
                1,
                0.8500000238418579
            ],
            "translation" : [
                -10,
                3,
                -1
            ]
        },
        {
            "mesh" : 10,
            "name" : "Blocik"
        }
    ],
    "materials" : [
        {
            "doubleSided" : true,
            "name" : "Material",
            "pbrMetallicRoughness" : {
                "baseColorTexture" : {
                    "index" : 0
                },
                "metallicFactor" : 0,
                "roughnessFactor" : 0.7161765098571777
            }
        },
        {
            "doubleSided" : true,
            "name" : "Material.001",
            "pbrMetallicRoughness" : {
                "baseColorTexture" : {
                    "index" : 1
                },
                "metallicFactor" : 0,
                "roughnessFactor" : 0.4000000059604645
            }
        },
        {
            "doubleSided" : true,
            "name" : "Material.002",
            "pbrMetallicRoughness" : {
                "baseColorTexture" : {
                    "index" : 2
                },
                "metallicFactor" : 0,
                "roughnessFactor" : 0.4000000059604645
            }
        },
        {
            "doubleSided" : true,
            "name" : "Material.003",
            "pbrMetallicRoughness" : {
                "baseColorTexture" : {
                    "index" : 3
                },
                "metallicFactor" : 0,
                "roughnessFactor" : 0.7161765098571777
            }
        },
        {
            "doubleSided" : true,
            "name" : "Material.004",
            "pbrMetallicRoughness" : {
                "baseColorTexture" : {
                    "index" : 4
                },
                "metallicFactor" : 0,
                "roughnessFactor" : 0.4000000059604645
            }
        }
    ],
    "meshes" : [
        {
            "name" : "Cube",
            "primitives" : [
                {
                    "attributes" : {
                        "POSITION" : 0,
                        "NORMAL" : 1,
                        "TEXCOORD_0" : 2
                    },
                    "indices" : 3,
                    "material" : 0
                }
            ]
        },
        {
            "name" : "Cube.001",
            "primitives" : [
                {
                    "attributes" : {
                        "POSITION" : 4,
                        "NORMAL" : 5,
                        "TEXCOORD_0" : 6,
                        "COLOR_0" : 7
                    },
                    "indices" : 8,
                    "material" : 0
                }
            ]
        },
        {
            "name" : "Cube.002",
            "primitives" : [
                {
                    "attributes" : {
                        "POSITION" : 9,
                        "NORMAL" : 10,
                        "TEXCOORD_0" : 11
                    },
                    "indices" : 12,
                    "material" : 0
                }
            ]
        },
        {
            "name" : "Cube.003",
            "primitives" : [
                {
                    "attributes" : {
                        "POSITION" : 13,
                        "NORMAL" : 14,
                        "TEXCOORD_0" : 15
                    },
                    "indices" : 12,
                    "material" : 0
                }
            ]
        },
        {
            "name" : "Cube.004",
            "primitives" : [
                {
                    "attributes" : {
                        "POSITION" : 16,
                        "NORMAL" : 17,
                        "TEXCOORD_0" : 18
                    },
                    "indices" : 19,
                    "material" : 0
                }
            ]
        },
        {
            "name" : "Cube.005",
            "primitives" : [
                {
                    "attributes" : {
                        "POSITION" : 20,
                        "NORMAL" : 21,
                        "TEXCOORD_0" : 22
                    },
                    "indices" : 23,
                    "material" : 0
                }
            ]
        },
        {
            "name" : "Cube.006",
            "primitives" : [
                {
                    "attributes" : {
                        "POSITION" : 24,
                        "NORMAL" : 25,
                        "TEXCOORD_0" : 26
                    },
                    "indices" : 27,
                    "material" : 1
                }
            ]
        },
        {
            "name" : "Cube.007",
            "primitives" : [
                {
                    "attributes" : {
                        "POSITION" : 28,
                        "NORMAL" : 29,
                        "TEXCOORD_0" : 30
                    },
                    "indices" : 31,
                    "material" : 2
                }
            ]
        },
        {
            "name" : "Cube.008",
            "primitives" : [
                {
                    "attributes" : {
                        "POSITION" : 32,
                        "NORMAL" : 33,
                        "TEXCOORD_0" : 34
                    },
                    "indices" : 35,
                    "material" : 3
                }
            ]
        },
        {
            "name" : "Cube.009",
            "primitives" : [
                {
                    "attributes" : {
                        "POSITION" : 36,
                        "NORMAL" : 37,
                        "TEXCOORD_0" : 38
                    },
                    "indices" : 31,
                    "material" : 4
                }
            ]
        },
        {
            "name" : "Cube.010",
            "primitives" : [
                {
                    "attributes" : {
                        "POSITION" : 39,
                        "NORMAL" : 40,
                        "TEXCOORD_0" : 41
                    },
                    "indices" : 42,
                    "material" : 0
                }
            ]
        }
    ],
    "textures" : [
        {
            "sampler" : 0,
            "source" : 0
        },
        {
            "sampler" : 0,
            "source" : 0
        },
        {
            "sampler" : 0,
            "source" : 0
        },
        {
            "sampler" : 1,
            "source" : 0
        },
        {
            "sampler" : 0,
            "source" : 0
        }
    ],
    "images" : [
        {
            "bufferView" : 4,
            "mimeType" : "image/jpeg",
            "name" : "depositphotos_125646866-stock-photo-beige-painted-stucco-wall-background"
        }
    ],
    "accessors" : [
        {
            "bufferView" : 0,
            "componentType" : 5126,
            "count" : 961,
            "max" : [
                25,
                14,
                20
            ],
            "min" : [
                -20,
                -0.005324448458850384,
                -23
            ],
            "type" : "VEC3"
        },
        {
            "bufferView" : 1,
            "componentType" : 5126,
            "count" : 961,
            "type" : "VEC3"
        },
        {
            "bufferView" : 2,
            "componentType" : 5126,
            "count" : 961,
            "type" : "VEC2"
        },
        {
            "bufferView" : 3,
            "componentType" : 5123,
            "count" : 1797,
            "type" : "SCALAR"
        },
        {
            "bufferView" : 5,
            "componentType" : 5126,
            "count" : 224,
            "max" : [
                2.5,
                14,
                -6
            ],
            "min" : [
                -2.5,
                0,
                -20
            ],
            "type" : "VEC3"
        },
        {
            "bufferView" : 6,
            "componentType" : 5126,
            "count" : 224,
            "type" : "VEC3"
        },
        {
            "bufferView" : 7,
            "componentType" : 5126,
            "count" : 224,
            "type" : "VEC2"
        },
        {
            "bufferView" : 8,
            "componentType" : 5123,
            "count" : 224,
            "normalized" : true,
            "type" : "VEC4"
        },
        {
            "bufferView" : 9,
            "componentType" : 5123,
            "count" : 336,
            "type" : "SCALAR"
        },
        {
            "bufferView" : 10,
            "componentType" : 5126,
            "count" : 4,
            "max" : [
                2.5,
                3.5,
                -16.5
            ],
            "min" : [
                2.5,
                3,
                -17
            ],
            "type" : "VEC3"
        },
        {
            "bufferView" : 11,
            "componentType" : 5126,
            "count" : 4,
            "type" : "VEC3"
        },
        {
            "bufferView" : 12,
            "componentType" : 5126,
            "count" : 4,
            "type" : "VEC2"
        },
        {
            "bufferView" : 13,
            "componentType" : 5123,
            "count" : 6,
            "type" : "SCALAR"
        },
        {
            "bufferView" : 14,
            "componentType" : 5126,
            "count" : 4,
            "max" : [
                -2.5,
                3.5,
                -16.5
            ],
            "min" : [
                -2.5,
                3,
                -17
            ],
            "type" : "VEC3"
        },
        {
            "bufferView" : 15,
            "componentType" : 5126,
            "count" : 4,
            "type" : "VEC3"
        },
        {
            "bufferView" : 16,
            "componentType" : 5126,
            "count" : 4,
            "type" : "VEC2"
        },
        {
            "bufferView" : 17,
            "componentType" : 5126,
            "count" : 545,
            "max" : [
                33,
                3,
                22.0087890625
            ],
            "min" : [
                -9,
                0,
                -20
            ],
            "type" : "VEC3"
        },
        {
            "bufferView" : 18,
            "componentType" : 5126,
            "count" : 545,
            "type" : "VEC3"
        },
        {
            "bufferView" : 19,
            "componentType" : 5126,
            "count" : 545,
            "type" : "VEC2"
        },
        {
            "bufferView" : 20,
            "componentType" : 5123,
            "count" : 1110,
            "type" : "SCALAR"
        },
        {
            "bufferView" : 21,
            "componentType" : 5126,
            "count" : 572,
            "max" : [
                33.02187728881836,
                3.019350528717041,
                -17.98211669921875
            ],
            "min" : [
                31,
                0,
                -20
            ],
            "type" : "VEC3"
        },
        {
            "bufferView" : 22,
            "componentType" : 5126,
            "count" : 572,
            "type" : "VEC3"
        },
        {
            "bufferView" : 23,
            "componentType" : 5126,
            "count" : 572,
            "type" : "VEC2"
        },
        {
            "bufferView" : 24,
            "componentType" : 5123,
            "count" : 858,
            "type" : "SCALAR"
        },
        {
            "bufferView" : 25,
            "componentType" : 5126,
            "count" : 574,
            "max" : [
                33,
                3.0083532333374023,
                22.0087890625
            ],
            "min" : [
                -9,
                0,
                -20
            ],
            "type" : "VEC3"
        },
        {
            "bufferView" : 26,
            "componentType" : 5126,
            "count" : 574,
            "type" : "VEC3"
        },
        {
            "bufferView" : 27,
            "componentType" : 5126,
            "count" : 574,
            "type" : "VEC2"
        },
        {
            "bufferView" : 28,
            "componentType" : 5123,
            "count" : 1122,
            "type" : "SCALAR"
        },
        {
            "bufferView" : 29,
            "componentType" : 5126,
            "count" : 42,
            "max" : [
                33,
                3,
                -18
            ],
            "min" : [
                31,
                0,
                -20
            ],
            "type" : "VEC3"
        },
        {
            "bufferView" : 30,
            "componentType" : 5126,
            "count" : 42,
            "type" : "VEC3"
        },
        {
            "bufferView" : 31,
            "componentType" : 5126,
            "count" : 42,
            "type" : "VEC2"
        },
        {
            "bufferView" : 32,
            "componentType" : 5123,
            "count" : 66,
            "type" : "SCALAR"
        },
        {
            "bufferView" : 33,
            "componentType" : 5126,
            "count" : 550,
            "max" : [
                33,
                3,
                22.0087890625
            ],
            "min" : [
                -9,
                0,
                -20
            ],
            "type" : "VEC3"
        },
        {
            "bufferView" : 34,
            "componentType" : 5126,
            "count" : 550,
            "type" : "VEC3"
        },
        {
            "bufferView" : 35,
            "componentType" : 5126,
            "count" : 550,
            "type" : "VEC2"
        },
        {
            "bufferView" : 36,
            "componentType" : 5123,
            "count" : 1068,
            "type" : "SCALAR"
        },
        {
            "bufferView" : 37,
            "componentType" : 5126,
            "count" : 42,
            "max" : [
                33,
                3,
                -18
            ],
            "min" : [
                31,
                0,
                -20
            ],
            "type" : "VEC3"
        },
        {
            "bufferView" : 38,
            "componentType" : 5126,
            "count" : 42,
            "type" : "VEC3"
        },
        {
            "bufferView" : 39,
            "componentType" : 5126,
            "count" : 42,
            "type" : "VEC2"
        },
        {
            "bufferView" : 40,
            "componentType" : 5126,
            "count" : 32,
            "max" : [
                7.5,
                1,
                -20
            ],
            "min" : [
                2.5,
                0,
                -22
            ],
            "type" : "VEC3"
        },
        {
            "bufferView" : 41,
            "componentType" : 5126,
            "count" : 32,
            "type" : "VEC3"
        },
        {
            "bufferView" : 42,
            "componentType" : 5126,
            "count" : 32,
            "type" : "VEC2"
        },
        {
            "bufferView" : 43,
            "componentType" : 5123,
            "count" : 48,
            "type" : "SCALAR"
        }
    ],
    "bufferViews" : [
        {
            "buffer" : 0,
            "byteLength" : 11532,
            "byteOffset" : 0
        },
        {
            "buffer" : 0,
            "byteLength" : 11532,
            "byteOffset" : 11532
        },
        {
            "buffer" : 0,
            "byteLength" : 7688,
            "byteOffset" : 23064
        },
        {
            "buffer" : 0,
            "byteLength" : 3594,
            "byteOffset" : 30752
        },
        {
            "buffer" : 0,
            "byteLength" : 285753,
            "byteOffset" : 34348
        },
        {
            "buffer" : 0,
            "byteLength" : 2688,
            "byteOffset" : 320104
        },
        {
            "buffer" : 0,
            "byteLength" : 2688,
            "byteOffset" : 322792
        },
        {
            "buffer" : 0,
            "byteLength" : 1792,
            "byteOffset" : 325480
        },
        {
            "buffer" : 0,
            "byteLength" : 1792,
            "byteOffset" : 327272
        },
        {
            "buffer" : 0,
            "byteLength" : 672,
            "byteOffset" : 329064
        },
        {
            "buffer" : 0,
            "byteLength" : 48,
            "byteOffset" : 329736
        },
        {
            "buffer" : 0,
            "byteLength" : 48,
            "byteOffset" : 329784
        },
        {
            "buffer" : 0,
            "byteLength" : 32,
            "byteOffset" : 329832
        },
        {
            "buffer" : 0,
            "byteLength" : 12,
            "byteOffset" : 329864
        },
        {
            "buffer" : 0,
            "byteLength" : 48,
            "byteOffset" : 329876
        },
        {
            "buffer" : 0,
            "byteLength" : 48,
            "byteOffset" : 329924
        },
        {
            "buffer" : 0,
            "byteLength" : 32,
            "byteOffset" : 329972
        },
        {
            "buffer" : 0,
            "byteLength" : 6540,
            "byteOffset" : 330004
        },
        {
            "buffer" : 0,
            "byteLength" : 6540,
            "byteOffset" : 336544
        },
        {
            "buffer" : 0,
            "byteLength" : 4360,
            "byteOffset" : 343084
        },
        {
            "buffer" : 0,
            "byteLength" : 2220,
            "byteOffset" : 347444
        },
        {
            "buffer" : 0,
            "byteLength" : 6864,
            "byteOffset" : 349664
        },
        {
            "buffer" : 0,
            "byteLength" : 6864,
            "byteOffset" : 356528
        },
        {
            "buffer" : 0,
            "byteLength" : 4576,
            "byteOffset" : 363392
        },
        {
            "buffer" : 0,
            "byteLength" : 1716,
            "byteOffset" : 367968
        },
        {
            "buffer" : 0,
            "byteLength" : 6888,
            "byteOffset" : 369684
        },
        {
            "buffer" : 0,
            "byteLength" : 6888,
            "byteOffset" : 376572
        },
        {
            "buffer" : 0,
            "byteLength" : 4592,
            "byteOffset" : 383460
        },
        {
            "buffer" : 0,
            "byteLength" : 2244,
            "byteOffset" : 388052
        },
        {
            "buffer" : 0,
            "byteLength" : 504,
            "byteOffset" : 390296
        },
        {
            "buffer" : 0,
            "byteLength" : 504,
            "byteOffset" : 390800
        },
        {
            "buffer" : 0,
            "byteLength" : 336,
            "byteOffset" : 391304
        },
        {
            "buffer" : 0,
            "byteLength" : 132,
            "byteOffset" : 391640
        },
        {
            "buffer" : 0,
            "byteLength" : 6600,
            "byteOffset" : 391772
        },
        {
            "buffer" : 0,
            "byteLength" : 6600,
            "byteOffset" : 398372
        },
        {
            "buffer" : 0,
            "byteLength" : 4400,
            "byteOffset" : 404972
        },
        {
            "buffer" : 0,
            "byteLength" : 2136,
            "byteOffset" : 409372
        },
        {
            "buffer" : 0,
            "byteLength" : 504,
            "byteOffset" : 411508
        },
        {
            "buffer" : 0,
            "byteLength" : 504,
            "byteOffset" : 412012
        },
        {
            "buffer" : 0,
            "byteLength" : 336,
            "byteOffset" : 412516
        },
        {
            "buffer" : 0,
            "byteLength" : 384,
            "byteOffset" : 412852
        },
        {
            "buffer" : 0,
            "byteLength" : 384,
            "byteOffset" : 413236
        },
        {
            "buffer" : 0,
            "byteLength" : 256,
            "byteOffset" : 413620
        },
        {
            "buffer" : 0,
            "byteLength" : 96,
            "byteOffset" : 413876
        }
    ],
    "samplers" : [
        {
            "magFilter" : 9729,
            "minFilter" : 9987
        },
        {
            "magFilter" : 9729,
            "minFilter" : 9987,
            "wrapS" : 33071,
            "wrapT" : 33071
        }
    ],
    "buffers" : [
        {
            "byteLength" : 413972,
            "uri" : "data:application/octet-stream;base64,"
        }
    ]
}
